<svg width="26" height="26" viewBox="0 0 26 26" fill="none" xmlns="http://www.w3.org/2000/svg">
<path d="M11.5027 1.57783C5.19427 2.40474 0.750744 8.18893 1.57766 14.4974C2.40458 20.8058 8.18876 25.2493 14.4972 24.4224C20.8056 23.5955 25.2492 17.8113 24.4222 11.5029C23.5953 5.19443 17.8111 0.75091 11.5027 1.57783ZM15.243 9.11644L13.5261 9.3415C13.3226 9.36817 13.1317 9.66551 13.1783 10.0213L13.3408 11.2611L15.4884 10.9795L15.3954 12.7902L13.5726 13.0291L14.2683 18.3369L12.2421 18.6025L11.5463 13.2947L9.70804 13.5357L9.47627 11.7676L11.3145 11.5267L11.1782 10.4868C10.9827 8.99473 11.8589 7.64661 13.2795 7.46039L14.9964 7.23533L15.243 9.11644V9.11644Z" fill="white"/>
</svg>
