<svg width="24" height="24" viewBox="0 0 24 24" fill="none" xmlns="http://www.w3.org/2000/svg">
<g clip-path="url(#clip0)">
<path d="M15.5999 12C15.5999 12.9548 15.2206 13.8704 14.5455 14.5456C13.8704 15.2207 12.9547 15.6 11.9999 15.6C11.0451 15.6 10.1295 15.2207 9.45433 14.5456C8.7792 13.8704 8.39992 12.9548 8.39992 12C8.39992 11.7948 8.42152 11.5944 8.45872 11.4H7.19992V16.1964C7.19992 16.53 7.46992 16.8 7.80352 16.8H16.1975C16.3574 16.7997 16.5106 16.7359 16.6236 16.6228C16.7365 16.5096 16.7999 16.3563 16.7999 16.1964V11.4H15.5411C15.5783 11.5944 15.5999 11.7948 15.5999 12ZM11.9999 14.4C12.3152 14.3999 12.6273 14.3377 12.9185 14.217C13.2098 14.0963 13.4744 13.9194 13.6972 13.6964C13.9201 13.4735 14.0968 13.2088 14.2174 12.9175C14.338 12.6262 14.4 12.314 14.3999 11.9988C14.3998 11.6835 14.3377 11.3714 14.217 11.0802C14.0962 10.7889 13.9193 10.5243 13.6964 10.3015C13.4734 10.0786 13.2087 9.90185 12.9174 9.78129C12.6262 9.66072 12.314 9.5987 11.9987 9.59878C11.362 9.59894 10.7515 9.85201 10.3014 10.3023C9.85133 10.7526 9.59856 11.3633 9.59872 12C9.59888 12.6367 9.85195 13.2472 10.3023 13.6973C10.7526 14.1474 11.3632 14.4001 11.9999 14.4ZM14.8799 9.47998H16.3187C16.4143 9.47998 16.506 9.44209 16.5737 9.37461C16.6414 9.30713 16.6796 9.21557 16.6799 9.11998V7.68118C16.6799 7.58538 16.6419 7.49351 16.5741 7.42577C16.5064 7.35804 16.4145 7.31998 16.3187 7.31998H14.8799C14.7841 7.31998 14.6922 7.35804 14.6245 7.42577C14.5568 7.49351 14.5187 7.58538 14.5187 7.68118V9.11998C14.5199 9.31798 14.6819 9.47998 14.8799 9.47998ZM11.9999 0.47998C8.94463 0.47998 6.01447 1.69369 3.85405 3.85411C1.69363 6.01453 0.479919 8.94469 0.479919 12C0.479919 15.0553 1.69363 17.9854 3.85405 20.1458C6.01447 22.3063 8.94463 23.52 11.9999 23.52C13.5127 23.52 15.0108 23.222 16.4084 22.6431C17.8061 22.0641 19.0761 21.2156 20.1458 20.1458C21.2155 19.0761 22.0641 17.8062 22.643 16.4085C23.2219 15.0108 23.5199 13.5128 23.5199 12C23.5199 10.4872 23.2219 8.98914 22.643 7.59147C22.0641 6.1938 21.2155 4.92384 20.1458 3.85411C19.0761 2.78438 17.8061 1.93582 16.4084 1.35689C15.0108 0.777954 13.5127 0.47998 11.9999 0.47998ZM17.9999 16.6668C17.9999 17.4 17.3999 18 16.6667 18H7.33312C6.59992 18 5.99992 17.4 5.99992 16.6668V7.33318C5.99992 6.59998 6.59992 5.99998 7.33312 5.99998H16.6667C17.3999 5.99998 17.9999 6.59998 17.9999 7.33318V16.6668Z" fill="white"/>
</g>
<defs>
<clipPath id="clip0">
<rect width="24" height="24" fill="white"/>
</clipPath>
</defs>
</svg>
