<svg width="24" height="24" viewBox="0 0 24 24" fill="none" xmlns="http://www.w3.org/2000/svg">
<path d="M13.9235 11.7996L11.2283 10.542C10.9931 10.4328 10.7999 10.5552 10.7999 10.8156V13.1844C10.7999 13.4448 10.9931 13.5672 11.2283 13.458L13.9223 12.2004C14.1587 12.09 14.1587 11.91 13.9235 11.7996ZM11.9999 0.47998C5.63749 0.47998 0.479889 5.63758 0.479889 12C0.479889 18.3624 5.63749 23.52 11.9999 23.52C18.3623 23.52 23.5199 18.3624 23.5199 12C23.5199 5.63758 18.3623 0.47998 11.9999 0.47998ZM11.9999 16.68C6.10309 16.68 5.99989 16.1484 5.99989 12C5.99989 7.85158 6.10309 7.31998 11.9999 7.31998C17.8967 7.31998 17.9999 7.85158 17.9999 12C17.9999 16.1484 17.8967 16.68 11.9999 16.68Z" fill="white"/>
</svg>
